@startuml
'https://plantuml.com/class-diagram

interface Ticket
class Header
class Body
class footer
class Line
class SoldLine
class RepeatLine
class CancelLine
class ReturnLine
class Country
class SpainTicket
class FranceTicket
class SoldLineSpanish



Line <|-- SoldLine
Line <|-- RepeatLine
Line <|-- CancelLine
Line <|-- ReturnLine

@enduml